<mxfile host="app.diagrams.net" modified="2020-09-01T12:28:18.775Z" agent="5.0 (Windows)" etag="dMV3xmwUD2BhqrHFMpFW" version="13.6.6" type="github">
  <diagram id="T99PzUVAFDoQMoi26orQ" name="Page-1">
    <mxGraphModel dx="1038" dy="547" grid="1" gridSize="10" guides="1" tooltips="1" connect="1" arrows="1" fold="1" page="1" pageScale="1" pageWidth="1169" pageHeight="827" math="0" shadow="0">
      <root>
        <mxCell id="0" />
        <mxCell id="1" parent="0" />
        <mxCell id="qGW0iyLOGjJOO7iM3Xq_-1" value="Product Development - Test Marketing of Newly Developed Products" style="swimlane;html=1;childLayout=stackLayout;resizeParent=1;resizeParentMax=0;horizontal=1;startSize=20;horizontalStack=0;" vertex="1" parent="1">
          <mxGeometry x="90" y="70" width="910" height="380" as="geometry" />
        </mxCell>
        <mxCell id="qGW0iyLOGjJOO7iM3Xq_-2" value="Lane 1" style="swimlane;html=1;startSize=20;horizontal=0;" vertex="1" parent="qGW0iyLOGjJOO7iM3Xq_-1">
          <mxGeometry y="20" width="910" height="120" as="geometry" />
        </mxCell>
        <mxCell id="qGW0iyLOGjJOO7iM3Xq_-3" value="Lane 2" style="swimlane;html=1;startSize=20;horizontal=0;" vertex="1" parent="qGW0iyLOGjJOO7iM3Xq_-1">
          <mxGeometry y="140" width="910" height="120" as="geometry" />
        </mxCell>
        <mxCell id="qGW0iyLOGjJOO7iM3Xq_-4" value="Lane 3" style="swimlane;html=1;startSize=20;horizontal=0;" vertex="1" parent="qGW0iyLOGjJOO7iM3Xq_-1">
          <mxGeometry y="260" width="910" height="120" as="geometry" />
        </mxCell>
      </root>
    </mxGraphModel>
  </diagram>
</mxfile>
